<svg xmlns="http://www.w3.org/2000/svg" width="25" height="25" viewBox="0 0 25 25">
  <path id="Path_21" data-name="Path 21" d="M12.734,3.843a1.411,1.411,0,1,0,1.411,1.411A1.411,1.411,0,0,0,12.734,3.843Zm.387-1.21a.6.6,0,0,0,.6-.6V2.01c0-2.2,3.9-2.016,3.9-5.414,0-2.543-2.274-4.043-4.911-4.043a5.289,5.289,0,0,0-4.6,2.255.6.6,0,0,0,.133.866l.662.461a.6.6,0,0,0,.819-.12,3.331,3.331,0,0,1,2.984-1.446c2,0,2.9,1.018,2.9,2.027,0,2.207-3.9,1.868-3.9,5.414v.019a.6.6,0,0,0,.6.6Zm-.387-13.911A10.888,10.888,0,0,1,23.621-.391,10.884,10.884,0,0,1,12.734,10.5,10.884,10.884,0,0,1,1.847-.391,10.887,10.887,0,0,1,12.734-11.278Zm0-1.613A12.5,12.5,0,0,0,.234-.391a12.5,12.5,0,0,0,12.5,12.5,12.5,12.5,0,0,0,12.5-12.5A12.5,12.5,0,0,0,12.734-12.891Z" transform="translate(-0.234 12.891)" fill="#13255b"/>
</svg>
