<svg xmlns="http://www.w3.org/2000/svg" width="24" height="26" viewBox="0 0 24 26">
  <g id="notification" transform="translate(0 3)">
    <g id="Group_7" data-name="Group 7" transform="translate(0 1)">
      <g id="Group_7-2" data-name="Group 7">
        <path id="Path_8" data-name="Path 8" d="M30.538,40.9h1.538a1.925,1.925,0,1,0,3.846,0h1.538a3.464,3.464,0,1,1-6.923,0ZM44,38.1v.4a1.568,1.568,0,0,1-1.539,1.6H25.539A1.57,1.57,0,0,1,24,38.5v-.4a2.769,2.769,0,0,1,2.308-2.771V30.5a7.7,7.7,0,1,1,15.385,0v4.829A2.766,2.766,0,0,1,44,38.1Zm-1.538,0A1.177,1.177,0,0,0,41.3,36.9a1.176,1.176,0,0,1-1.15-1.2V30.5a6.159,6.159,0,1,0-12.308,0v5.2a1.176,1.176,0,0,1-1.15,1.2,1.179,1.179,0,0,0-1.157,1.2v.4H42.461S42.462,38.1,42.462,38.1Z" transform="translate(-24 -22.5)" fill="#13255b"/>
      </g>
    </g>
    <g id="Ellipse_3" data-name="Ellipse 3" transform="translate(13)" fill="#ffa741" stroke="#fff" stroke-width="3">
      <circle cx="4" cy="4" r="4" stroke="none"/>
      <circle cx="4" cy="4" r="5.5" fill="none"/>
    </g>
  </g>
</svg>
