<svg xmlns="http://www.w3.org/2000/svg" width="17.477" height="22.08" viewBox="0 0 17.477 22.08">
  <g id="Group_24712" data-name="Group 24712" transform="translate(-980.824 -502.7)">
    <path id="Path_11751" data-name="Path 11751" d="M161.709,19.6H145.987a.578.578,0,0,0-.577.577V40.5a.578.578,0,0,0,.577.577h15.721a.578.578,0,0,0,.577-.577V20.179a.578.578,0,0,0-.577-.577Zm-.116,20.787H146.1V20.295h15.491Z" transform="translate(835.714 483.398)" stroke="#ea5455" stroke-width="0.6"/>
    <path id="Path_11831" data-name="Path 11831" d="M149.607,36.492a.346.346,0,1,0-.435.54,2.3,2.3,0,0,0,1.255.449v.238a.346.346,0,0,0,.693,0v-.264c.717-.117,1.246-.511,1.317-1.039a1.019,1.019,0,0,0-.234-.783,1.784,1.784,0,0,0-1.083-.573V33.906a1.6,1.6,0,0,1,.82.291.346.346,0,0,0,.435-.54,2.3,2.3,0,0,0-1.255-.449v-.238a.346.346,0,0,0-.693,0v.264c-.717.117-1.246.51-1.317,1.039a1.013,1.013,0,0,0,.242.773,1.922,1.922,0,0,0,1.075.613v1.123a1.6,1.6,0,0,1-.82-.292Zm1.513-.724a1.024,1.024,0,0,1,.546.3.328.328,0,0,1,.085.253c-.021.152-.259.333-.631.421Zm-1.23-1.158a.352.352,0,0,1-.093-.243c.02-.152.259-.333.631-.421v1a1.159,1.159,0,0,1-.537-.334ZM153.648,34h4.659a.346.346,0,0,1,0,.693h-4.659a.346.346,0,0,1,0-.693Zm5.006,2.336a.346.346,0,0,1-.346.346h-4.659a.346.346,0,1,1,0-.693h4.659A.346.346,0,0,1,158.654,36.339Zm-4.8-5.278a4.221,4.221,0,1,0-4.221-4.221A4.226,4.226,0,0,0,153.849,31.061Zm0-7.749a3.526,3.526,0,0,1,2.726,5.765l-4.963-4.963a3.511,3.511,0,0,1,2.237-.8ZM151.122,24.6l4.963,4.963a3.526,3.526,0,0,1-4.963-4.963Z" transform="translate(835.713 483.398)" fill="#ea5455" stroke="#ea5455" stroke-width="0.6"/>
  </g>
</svg>
