<svg xmlns="http://www.w3.org/2000/svg" width="18.817" height="21.797" viewBox="0 0 18.817 21.797">
  <g id="Group_24707" data-name="Group 24707" transform="translate(-154.183 -383.203)">
    <g id="Group_23499" data-name="Group 23499" transform="translate(134.798 1.643)">
      <g id="Group_23096" data-name="Group 23096" transform="translate(26.095 388.805)">
        <path id="Path_3834" data-name="Path 3834" d="M0,0H5.919" fill="none" stroke="#288c96" stroke-linecap="round" stroke-linejoin="round" stroke-width="1.6"/>
      </g>
      <g id="Group_23097" data-name="Group 23097" transform="translate(26.095 392.173)">
        <path id="Path_3834-2" data-name="Path 3834" d="M0,0H5.919" fill="none" stroke="#288c96" stroke-linecap="round" stroke-linejoin="round" stroke-width="1.6"/>
      </g>
      <path id="Path_4243" data-name="Path 4243" d="M-1828.295,394.073s-.027-14.322-.031-14.3c-.051-.191,1.94,2.829,2.4,2.866s1.873-2.879,2.306-2.995,1.832,2.851,2.2,2.851,2.023-2.851,2.325-2.851,1.738,2.662,2.061,2.662,2.311-3.179,2.3-2.533c.022-.018,0,15.679,0,15.679s.286,3.973-2.3,4.122-11.734,0-11.734,0-2.508.111-2.458-3.507c.036-.009,0-1.739,0-1.739h11.452s-.682,5.171,2.5,5.245" transform="translate(1851.43 2.719)" fill="none" stroke="#288c96" stroke-width="1.6"/>
    </g>
    <g id="Path_11777" data-name="Path 11777" transform="translate(162 394)" fill="#fff">
      <path d="M 5.5 10.5 C 2.742990016937256 10.5 0.5 8.257010459899902 0.5 5.5 C 0.5 2.742990016937256 2.742990016937256 0.5 5.5 0.5 C 8.257010459899902 0.5 10.5 2.742990016937256 10.5 5.5 C 10.5 8.257010459899902 8.257010459899902 10.5 5.5 10.5 Z" stroke="none"/>
      <path d="M 5.5 1 C 3.01869010925293 1 1 3.01869010925293 1 5.5 C 1 7.98130989074707 3.01869010925293 10 5.5 10 C 7.98130989074707 10 10 7.98130989074707 10 5.5 C 10 3.01869010925293 7.98130989074707 1 5.5 1 M 5.5 0 C 8.537569999694824 0 11 2.462430000305176 11 5.5 C 11 8.537569999694824 8.537569999694824 11 5.5 11 C 2.462430000305176 11 0 8.537569999694824 0 5.5 C 0 2.462430000305176 2.462430000305176 0 5.5 0 Z" stroke="none" fill="#ea5455"/>
    </g>
    <g id="Group_23498" data-name="Group 23498" transform="matrix(0.588, 0.809, -0.809, 0.588, 164.879, 395.569)">
      <path id="Path_3834-3" data-name="Path 3834" d="M0,0H9.611" transform="translate(0 0)" fill="none" stroke="#ea5455" stroke-linecap="round" stroke-linejoin="round" stroke-width="1.6"/>
    </g>
  </g>
</svg>
